<svg width="25" height="24" viewBox="0 0 25 24" fill="none" xmlns="http://www.w3.org/2000/svg">
<path d="M7.33332 19C6.6101 18.9996 5.89557 18.8423 5.23903 18.539C4.58249 18.2357 3.99958 17.7935 3.53049 17.2431C3.0614 16.6926 2.71732 16.0469 2.52197 15.3506C2.32662 14.6542 2.28466 13.9238 2.39898 13.2097C2.51331 12.4955 2.78119 11.8147 3.18415 11.2141C3.58712 10.6136 4.11557 10.1076 4.73305 9.73107C5.35054 9.35455 6.04235 9.11647 6.76077 9.03324C7.47919 8.95002 8.20711 9.02365 8.89432 9.24903C9.52889 7.76666 10.6556 6.54874 12.0843 5.80098C13.5129 5.05322 15.1558 4.82145 16.7355 5.14482C18.3153 5.4682 19.735 6.32689 20.7548 7.57587C21.7747 8.82484 22.3323 10.3875 22.3333 12C22.3333 13.8565 21.5958 15.637 20.2831 16.9498C18.9703 18.2625 17.1898 19 15.3333 19H7.33332ZM7.33332 17H15.3333C16.2363 16.9996 17.1223 16.7547 17.8973 16.2912C18.6722 15.8278 19.3072 15.1631 19.7348 14.3678C20.1624 13.5725 20.3667 12.6763 20.3259 11.7742C20.2851 10.8722 20.0008 9.998 19.5032 9.24453C19.0056 8.49106 18.3132 7.8864 17.4996 7.49478C16.686 7.10315 15.7815 6.93916 14.8821 7.02022C13.9828 7.10128 13.1222 7.42437 12.3918 7.95519C11.6613 8.486 11.0882 9.20472 10.7333 10.035L10.0133 11.721L8.27132 11.149C7.8591 11.014 7.4225 10.97 6.99162 11.0201C6.56075 11.0701 6.14585 11.213 5.77552 11.4388C5.4052 11.6647 5.08826 11.9682 4.84655 12.3284C4.60484 12.6885 4.44412 13.0969 4.37545 13.5252C4.30679 13.9535 4.33182 14.3916 4.44883 14.8092C4.56583 15.2269 4.77202 15.6143 5.05318 15.9446C5.33435 16.2749 5.68379 16.5403 6.07744 16.7225C6.47108 16.9047 6.89955 16.9994 7.33332 17Z" fill="#475569"/>
</svg>
